<?xml version="1.0" encoding="UTF-8"?>
<svg xmlns="http://www.w3.org/2000/svg" viewBox="0 0 400 340" role="img" aria-label="Klass Tree and Landscape">
  <title>Klass Tree and Landscape</title>

  <!-- ===== LEAVES (48 ellipses, two green shades) ===== -->
  <!-- Dark green: #5e7024  |  Light green: #88a830 -->

  <!-- Far-left cluster -->
  <ellipse cx="68" cy="125" rx="8" ry="15" fill="#5e7024" transform="rotate(-38,68,125)"/>
  <ellipse cx="78" cy="111" rx="9" ry="16" fill="#88a830" transform="rotate(-52,78,111)"/>
  <ellipse cx="90" cy="127" rx="8" ry="15" fill="#5e7024" transform="rotate(-30,90,127)"/>
  <ellipse cx="76" cy="98"  rx="8" ry="15" fill="#88a830" transform="rotate(-62,76,98)"/>
  <ellipse cx="96" cy="111" rx="8" ry="14" fill="#5e7024" transform="rotate(-44,96,111)"/>
  <ellipse cx="64" cy="116" rx="7" ry="13" fill="#88a830" transform="rotate(-35,64,116)"/>
  <ellipse cx="89" cy="141" rx="7" ry="13" fill="#5e7024" transform="rotate(-27,89,141)"/>
  <ellipse cx="106" cy="119" rx="8" ry="14" fill="#88a830" transform="rotate(-48,106,119)"/>

  <!-- Left cluster -->
  <ellipse cx="116" cy="91"  rx="9" ry="16" fill="#88a830" transform="rotate(-66,116,91)"/>
  <ellipse cx="126" cy="75"  rx="9" ry="16" fill="#5e7024" transform="rotate(-74,126,75)"/>
  <ellipse cx="135" cy="61"  rx="8" ry="15" fill="#88a830" transform="rotate(-82,135,61)"/>
  <ellipse cx="142" cy="77"  rx="9" ry="16" fill="#5e7024" transform="rotate(-70,142,77)"/>
  <ellipse cx="120" cy="63"  rx="8" ry="14" fill="#88a830" transform="rotate(-80,120,63)"/>
  <ellipse cx="133" cy="89"  rx="8" ry="14" fill="#5e7024" transform="rotate(-62,133,89)"/>
  <ellipse cx="148" cy="56"  rx="7" ry="13" fill="#88a830" transform="rotate(-85,148,56)"/>
  <ellipse cx="122" cy="97"  rx="8" ry="14" fill="#5e7024" transform="rotate(-58,122,97)"/>

  <!-- Center-left cluster -->
  <ellipse cx="164" cy="71"  rx="9" ry="16" fill="#5e7024" transform="rotate(-86,164,71)"/>
  <ellipse cx="172" cy="51"  rx="9" ry="16" fill="#88a830" transform="rotate(-88,172,51)"/>
  <ellipse cx="180" cy="41"  rx="8" ry="15" fill="#5e7024" transform="rotate(-85,180,41)"/>
  <ellipse cx="166" cy="57"  rx="8" ry="14" fill="#88a830" transform="rotate(-83,166,57)"/>
  <ellipse cx="178" cy="67"  rx="9" ry="16" fill="#5e7024" transform="rotate(-81,178,67)"/>
  <ellipse cx="158" cy="47"  rx="8" ry="14" fill="#88a830" transform="rotate(-88,158,47)"/>
  <ellipse cx="187" cy="53"  rx="7" ry="13" fill="#5e7024" transform="rotate(-84,187,53)"/>
  <ellipse cx="174" cy="79"  rx="8" ry="14" fill="#88a830" transform="rotate(-77,174,79)"/>

  <!-- Center-right cluster -->
  <ellipse cx="213" cy="79"  rx="8" ry="14" fill="#5e7024" transform="rotate(77,213,79)"/>
  <ellipse cx="220" cy="53"  rx="7" ry="13" fill="#88a830" transform="rotate(84,220,53)"/>
  <ellipse cx="228" cy="47"  rx="8" ry="14" fill="#5e7024" transform="rotate(88,228,47)"/>
  <ellipse cx="235" cy="57"  rx="8" ry="14" fill="#88a830" transform="rotate(83,235,57)"/>
  <ellipse cx="222" cy="67"  rx="9" ry="16" fill="#5e7024" transform="rotate(81,222,67)"/>
  <ellipse cx="242" cy="41"  rx="8" ry="15" fill="#88a830" transform="rotate(85,242,41)"/>
  <ellipse cx="228" cy="51"  rx="9" ry="16" fill="#5e7024" transform="rotate(88,228,51)"/>
  <ellipse cx="236" cy="71"  rx="9" ry="16" fill="#88a830" transform="rotate(86,236,71)"/>

  <!-- Right cluster -->
  <ellipse cx="258" cy="97"  rx="8" ry="14" fill="#5e7024" transform="rotate(58,258,97)"/>
  <ellipse cx="252" cy="56"  rx="7" ry="13" fill="#88a830" transform="rotate(85,252,56)"/>
  <ellipse cx="260" cy="77"  rx="8" ry="14" fill="#5e7024" transform="rotate(62,260,77)"/>
  <ellipse cx="268" cy="89"  rx="9" ry="16" fill="#88a830" transform="rotate(70,268,89)"/>
  <ellipse cx="278" cy="75"  rx="9" ry="16" fill="#5e7024" transform="rotate(74,278,75)"/>
  <ellipse cx="282" cy="61"  rx="8" ry="15" fill="#88a830" transform="rotate(80,282,61)"/>
  <ellipse cx="270" cy="63"  rx="8" ry="14" fill="#5e7024" transform="rotate(82,270,63)"/>
  <ellipse cx="285" cy="91"  rx="9" ry="16" fill="#88a830" transform="rotate(66,285,91)"/>

  <!-- Far-right cluster -->
  <ellipse cx="295" cy="119" rx="8" ry="14" fill="#5e7024" transform="rotate(48,295,119)"/>
  <ellipse cx="312" cy="111" rx="8" ry="14" fill="#88a830" transform="rotate(44,312,111)"/>
  <ellipse cx="322" cy="99"  rx="9" ry="16" fill="#5e7024" transform="rotate(62,322,99)"/>
  <ellipse cx="308" cy="127" rx="8" ry="15" fill="#88a830" transform="rotate(32,308,127)"/>
  <ellipse cx="320" cy="113" rx="9" ry="16" fill="#5e7024" transform="rotate(52,320,113)"/>
  <ellipse cx="331" cy="121" rx="8" ry="14" fill="#88a830" transform="rotate(36,331,121)"/>
  <ellipse cx="304" cy="103" rx="8" ry="14" fill="#5e7024" transform="rotate(58,304,103)"/>
  <ellipse cx="333" cy="141" rx="7" ry="13" fill="#88a830" transform="rotate(27,333,141)"/>

  <!-- ===== ROOTS & GROUND ===== -->
  <g stroke="#4d3018" fill="none" stroke-linecap="round">
    <path stroke-width="1.5" d="M62,314 Q200,304 338,314" opacity="0.6"/>
    <path stroke-width="4.5" d="M188,310 C170,310 148,314 124,317 C98,320 76,321 60,318"/>
    <path stroke-width="4.5" d="M212,310 C230,310 252,314 276,317 C302,320 324,321 340,318"/>
    <path stroke-width="3.5" d="M192,311 C181,317 171,324 163,331 C155,338 151,345 149,351"/>
    <path stroke-width="3.5" d="M208,311 C219,317 229,324 237,331 C245,338 249,345 251,351"/>
    <path stroke-width="2.5" d="M196,311 C194,320 192,329 191,337 C190,344 190,350 191,355"/>
    <path stroke-width="2.5" d="M204,311 C206,320 208,329 209,337 C210,344 210,350 209,355"/>
  </g>

  <!-- ===== TRUNK & BRANCHES ===== -->
  <g stroke="#4d3018" fill="none" stroke-linecap="round" stroke-linejoin="round">

    <!-- Main trunk: two columns + center fill -->
    <path stroke-width="23" d="M188,310 C186,285 183,258 180,234 C177,212 174,192 171,175 C169,160 167,149 165,141"/>
    <path stroke-width="23" d="M212,310 C214,285 217,258 220,234 C223,212 226,192 229,175 C231,160 233,149 235,141"/>
    <path stroke-width="14" d="M200,310 C200,285 200,258 200,234 C200,214 200,194 200,176"/>

    <!-- Far-left main branch -->
    <path stroke-width="12" d="M165,161 C153,149 139,135 123,121 C107,107 91,97 80,107"/>
    <path stroke-width="7"  d="M123,121 C109,111 97,102 87,94 C77,87 70,83 67,107"/>
    <path stroke-width="6"  d="M111,133 C99,121 89,111 81,101 C73,92 68,85 67,95"/>

    <!-- Left main branch -->
    <path stroke-width="11" d="M172,160 C163,143 153,126 143,110 C133,94 124,80 116,67"/>
    <path stroke-width="7"  d="M143,110 C136,94 129,80 124,66 C119,53 116,42 114,33"/>
    <path stroke-width="6"  d="M133,119 C127,104 122,90 118,76 C114,64 111,52 110,43"/>

    <!-- Center-left branch -->
    <path stroke-width="11" d="M181,153 C179,135 177,117 175,100 C173,84 171,69 170,55"/>
    <path stroke-width="7"  d="M175,100 C173,85 172,71 171,57 C170,44 170,33 170,24"/>

    <!-- Center-right branch -->
    <path stroke-width="11" d="M219,153 C221,135 223,117 225,100 C227,84 229,69 230,55"/>
    <path stroke-width="7"  d="M225,100 C227,85 228,71 229,57 C230,44 230,33 230,24"/>

    <!-- Right main branch -->
    <path stroke-width="11" d="M228,160 C237,143 247,126 257,110 C267,94 276,80 284,67"/>
    <path stroke-width="7"  d="M257,110 C264,94 271,80 276,66 C281,53 284,42 286,33"/>
    <path stroke-width="6"  d="M267,119 C273,104 278,90 282,76 C286,64 289,52 290,43"/>

    <!-- Far-right main branch -->
    <path stroke-width="12" d="M235,161 C247,149 261,135 277,121 C293,107 309,97 320,107"/>
    <path stroke-width="7"  d="M277,121 C291,111 303,102 313,94 C323,87 330,83 333,107"/>
    <path stroke-width="6"  d="M289,133 C301,121 311,111 319,101 C327,92 332,85 333,95"/>

  </g>
</svg>
